<svg width="50" height="50" viewBox="0 0 50 50" fill="none" xmlns="http://www.w3.org/2000/svg">
<g clip-path="url(#clip0_6002_7418)">
<path d="M20.3125 50C19.8187 50.0025 19.3359 49.8543 18.9286 49.5751C18.5213 49.2959 18.2089 48.899 18.0332 48.4375L14.1426 38.3203C14.0638 38.1165 13.9432 37.9313 13.7887 37.7768C13.6341 37.6222 13.449 37.5017 13.2451 37.4229L3.12499 33.5293C2.664 33.3524 2.26749 33.0398 1.9878 32.6329C1.70811 32.226 1.55838 31.7438 1.55838 31.25C1.55838 30.7562 1.70811 30.2741 1.9878 29.8671C2.26749 29.4602 2.664 29.1477 3.12499 28.9707L13.2422 25.0801C13.446 25.0013 13.6312 24.8808 13.7857 24.7262C13.9403 24.5717 14.0608 24.3865 14.1396 24.1826L18.0332 14.0625C18.2101 13.6015 18.5227 13.205 18.9296 12.9253C19.3365 12.6456 19.8187 12.4959 20.3125 12.4959C20.8063 12.4959 21.2884 12.6456 21.6954 12.9253C22.1023 13.205 22.4149 13.6015 22.5918 14.0625L26.4824 24.1797C26.5612 24.3836 26.6818 24.5687 26.8363 24.7233C26.9909 24.8778 27.176 24.9984 27.3799 25.0772L37.4385 28.9473C37.9182 29.1251 38.3315 29.4465 38.6221 29.8676C38.9127 30.2887 39.0665 30.7892 39.0625 31.3008C39.055 31.786 38.9021 32.2578 38.6236 32.6551C38.345 33.0524 37.9536 33.3569 37.5 33.5293L27.3828 37.4199C27.1789 37.4987 26.9938 37.6193 26.8392 37.7738C26.6847 37.9284 26.5641 38.1135 26.4853 38.3174L22.5918 48.4375C22.4161 48.899 22.1037 49.2959 21.6964 49.5751C21.2891 49.8543 20.8063 50.0025 20.3125 50Z" fill="#F86B0D"/>
<path d="M8.59366 17.1874C8.30416 17.1873 8.02146 17.0996 7.78281 16.9357C7.54415 16.7719 7.36074 16.5396 7.25674 16.2694L5.61026 11.9881C5.57457 11.8945 5.5195 11.8095 5.44864 11.7386C5.37779 11.6678 5.29276 11.6127 5.19913 11.577L0.917876 9.93052C0.647738 9.82649 0.415451 9.64307 0.251618 9.40441C0.0877848 9.16576 9.15527e-05 8.88308 9.15527e-05 8.5936C9.15527e-05 8.30413 0.0877848 8.02144 0.251618 7.78279C0.415451 7.54414 0.647738 7.36071 0.917876 7.25669L5.19913 5.6102C5.29267 5.57436 5.37761 5.51922 5.44845 5.44839C5.51928 5.37756 5.57441 5.29261 5.61026 5.19907L7.2421 0.955907C7.33412 0.706104 7.49249 0.486103 7.70016 0.319548C7.90784 0.152994 8.15698 0.0461823 8.42081 0.0105942C8.73755 -0.0279115 9.05809 0.040427 9.33158 0.204773C9.60508 0.369119 9.81589 0.620066 9.93057 0.917821L11.5771 5.19907C11.6129 5.29261 11.668 5.37756 11.7389 5.44839C11.8097 5.51922 11.8946 5.57436 11.9882 5.6102L16.2694 7.25669C16.5396 7.36071 16.7719 7.54414 16.9357 7.78279C17.0995 8.02144 17.1872 8.30413 17.1872 8.5936C17.1872 8.88308 17.0995 9.16576 16.9357 9.40441C16.7719 9.64307 16.5396 9.82649 16.2694 9.93052L11.9882 11.577C11.8946 11.6127 11.8095 11.6678 11.7387 11.7386C11.6678 11.8095 11.6127 11.8945 11.5771 11.9881L9.93057 16.2694C9.82657 16.5396 9.64316 16.7719 9.40451 16.9357C9.16586 17.0996 8.88315 17.1873 8.59366 17.1874Z" fill="#F86B0D"/>
<path d="M39.0625 25C38.7467 24.9999 38.4383 24.9041 38.178 24.7252C37.9178 24.5464 37.7178 24.2928 37.6045 23.998L35.374 18.2002C35.3348 18.098 35.2745 18.0052 35.1971 17.9278C35.1197 17.8505 35.027 17.7902 34.9248 17.751L29.127 15.5205C28.8324 15.407 28.5791 15.2069 28.4005 14.9467C28.2219 14.6864 28.1263 14.3781 28.1263 14.0625C28.1263 13.7468 28.2219 13.4385 28.4005 13.1783C28.5791 12.918 28.8324 12.718 29.127 12.6045L34.9248 10.374C35.027 10.3348 35.1197 10.2745 35.1971 10.1971C35.2745 10.1197 35.3348 10.0269 35.374 9.92478L37.5879 4.16794C37.689 3.89571 37.8619 3.65596 38.0884 3.4742C38.3149 3.29244 38.5864 3.17546 38.874 3.13572C39.2197 3.09387 39.5694 3.16868 39.8677 3.34825C40.166 3.52783 40.3957 3.80188 40.5205 4.12693L42.751 9.92478C42.7902 10.0269 42.8505 10.1197 42.9279 10.1971C43.0052 10.2745 43.098 10.3348 43.2002 10.374L48.998 12.6045C49.2926 12.718 49.5459 12.918 49.7245 13.1783C49.9031 13.4385 49.9987 13.7468 49.9987 14.0625C49.9987 14.3781 49.9031 14.6864 49.7245 14.9467C49.5459 15.2069 49.2926 15.407 48.998 15.5205L43.2002 17.751C43.098 17.7902 43.0052 17.8505 42.9279 17.9278C42.8505 18.0052 42.7902 18.098 42.751 18.2002L40.5205 23.998C40.4072 24.2928 40.2072 24.5464 39.947 24.7252C39.6867 24.9041 39.3783 24.9999 39.0625 25Z" fill="#F86B0D"/>
</g>
<defs>
<clipPath id="clip0_6002_7418">
<rect width="50" height="50" fill="white"/>
</clipPath>
</defs>
</svg>
