<svg width="16" height="16" viewBox="0 0 16 16" fill="none" xmlns="http://www.w3.org/2000/svg">
<path d="M8.49998 14.5H7.49998C7.23477 14.5 6.98041 14.3946 6.79288 14.2071C6.60534 14.0196 6.49998 13.7652 6.49998 13.5L6.50154 10.8181C6.50158 10.7962 6.49582 10.7746 6.48487 10.7556C6.47391 10.7365 6.45813 10.7207 6.43912 10.7097C6.42012 10.6987 6.39855 10.6929 6.37659 10.6929C6.35463 10.6929 6.33306 10.6987 6.31404 10.7097L3.99092 12.0553C3.76498 12.1857 3.49649 12.2211 3.24449 12.1536C2.9925 12.0861 2.77764 11.9212 2.64717 11.6953L2.13154 10.8003L2.12967 10.7972C2.00272 10.5714 1.96944 10.3047 2.037 10.0546C2.10455 9.80451 2.26753 9.5909 2.49092 9.45969L4.82248 8.10812C4.84143 8.09714 4.85715 8.08137 4.86808 8.06239C4.87901 8.04341 4.88476 8.0219 4.88476 8C4.88476 7.9781 4.87901 7.95659 4.86808 7.93761C4.85715 7.91863 4.84143 7.90286 4.82248 7.89187L2.49311 6.54156C2.38095 6.47725 2.28261 6.39141 2.20372 6.28898C2.12483 6.18655 2.06696 6.06955 2.03342 5.94469C1.99988 5.81983 1.99134 5.68957 2.00829 5.5614C2.02523 5.43323 2.06733 5.30967 2.13217 5.19781L2.64592 4.30562C2.71084 4.19283 2.79749 4.09404 2.90086 4.01497C3.00423 3.9359 3.12225 3.87813 3.24811 3.845C3.37253 3.81161 3.50234 3.80326 3.63001 3.82042C3.75768 3.83759 3.88068 3.87993 3.99186 3.945L6.31404 5.28875C6.33306 5.29973 6.35463 5.3055 6.37659 5.3055C6.39855 5.30549 6.42012 5.2997 6.43912 5.2887C6.45813 5.27771 6.47391 5.26191 6.48487 5.24288C6.49582 5.22385 6.50158 5.20227 6.50154 5.18031L6.49998 2.5C6.49998 2.23478 6.60534 1.98043 6.79288 1.79289C6.98041 1.60536 7.23477 1.5 7.49998 1.5H8.49998C8.7652 1.5 9.01955 1.60536 9.20709 1.79289C9.39463 1.98043 9.49998 2.23478 9.49998 2.5V5.17875C9.49995 5.20071 9.5057 5.22229 9.51666 5.24131C9.52762 5.26034 9.54339 5.27615 9.5624 5.28714C9.58141 5.29813 9.60298 5.30393 9.62494 5.30393C9.64689 5.30394 9.66847 5.29817 9.68748 5.28719L12.0106 3.94156C12.2366 3.81138 12.505 3.77617 12.7569 3.84366C13.0089 3.91116 13.2237 4.07583 13.3544 4.30156L13.8697 5.19656L13.8715 5.19938C14 5.42544 14.0338 5.69311 13.9656 5.94401C13.8975 6.19491 13.7329 6.40869 13.5078 6.53875L11.1787 7.88875C11.1598 7.89974 11.1441 7.91551 11.1331 7.93449C11.1222 7.95346 11.1165 7.97498 11.1165 7.99687C11.1165 8.01877 11.1222 8.04029 11.1331 8.05926C11.1441 8.07824 11.1598 8.09401 11.1787 8.105L13.5078 9.455C13.6199 9.51932 13.7183 9.60515 13.7972 9.70757C13.8761 9.80999 13.934 9.92699 13.9675 10.0518C14.0011 10.1767 14.0097 10.3069 13.9928 10.4351C13.9759 10.5633 13.9338 10.6869 13.869 10.7987L13.3553 11.6909C13.2904 11.8037 13.2037 11.9025 13.1004 11.9816C12.997 12.0607 12.879 12.1184 12.7531 12.1516C12.6287 12.185 12.4989 12.1933 12.3712 12.1761C12.2435 12.159 12.1205 12.1166 12.0094 12.0516L9.68717 10.7078C9.66818 10.6968 9.64663 10.6911 9.6247 10.6911C9.60277 10.6911 9.58122 10.6968 9.56222 10.7078C9.54323 10.7187 9.52744 10.7345 9.51646 10.7535C9.50548 10.7725 9.49969 10.794 9.49967 10.8159L9.49998 13.5C9.49998 13.7652 9.39463 14.0196 9.20709 14.2071C9.01955 14.3946 8.7652 14.5 8.49998 14.5Z" fill="white"/>
</svg>
