<svg width="20" height="20" viewBox="0 0 20 20" fill="none" xmlns="http://www.w3.org/2000/svg">
<g opacity="0.5">
<path d="M10.9917 5H5.65835C5.44169 5 5.23335 5.00833 5.03335 5.03333C2.79169 5.225 1.66669 6.55 1.66669 8.99167V12.325C1.66669 15.6583 3.00002 16.3167 5.65835 16.3167H5.99169C6.17502 16.3167 6.41669 16.4417 6.52502 16.5833L7.52502 17.9167C7.96669 18.5083 8.68335 18.5083 9.12502 17.9167L10.125 16.5833C10.25 16.4167 10.45 16.3167 10.6584 16.3167H10.9917C13.4334 16.3167 14.7584 15.2 14.95 12.95C14.975 12.75 14.9834 12.5417 14.9834 12.325V8.99167C14.9834 6.33333 13.65 5 10.9917 5ZM5.41669 11.6667C4.95002 11.6667 4.58335 11.2917 4.58335 10.8333C4.58335 10.375 4.95835 10 5.41669 10C5.87502 10 6.25002 10.375 6.25002 10.8333C6.25002 11.2917 5.87502 11.6667 5.41669 11.6667ZM8.32502 11.6667C7.85835 11.6667 7.49169 11.2917 7.49169 10.8333C7.49169 10.375 7.86669 10 8.32502 10C8.78335 10 9.15835 10.375 9.15835 10.8333C9.15835 11.2917 8.79169 11.6667 8.32502 11.6667ZM11.2417 11.6667C10.775 11.6667 10.4084 11.2917 10.4084 10.8333C10.4084 10.375 10.7834 10 11.2417 10C11.7 10 12.075 10.375 12.075 10.8333C12.075 11.2917 11.7 11.6667 11.2417 11.6667Z" fill="#101010"/>
<path d="M18.3166 5.65833V8.99167C18.3166 10.6583 17.8 11.7917 16.7666 12.4167C16.5166 12.5667 16.225 12.3667 16.225 12.075L16.2333 8.99167C16.2333 5.65833 14.325 3.75 10.9916 3.75L5.91665 3.75833C5.62498 3.75833 5.42498 3.46667 5.57498 3.21667C6.19998 2.18333 7.33331 1.66667 8.99165 1.66667H14.325C16.9833 1.66667 18.3166 3 18.3166 5.65833Z" fill="#101010"/>
</g>
</svg>
