<svg width="16" height="16" viewBox="0 0 16 16" fill="none" xmlns="http://www.w3.org/2000/svg">
<path d="M9.06061 8.00032L12.0294 5.03157C12.1703 4.89093 12.2495 4.70007 12.2497 4.50099C12.2499 4.30191 12.1709 4.11091 12.0303 3.97001C11.8897 3.82912 11.6988 3.74986 11.4997 3.74969C11.3006 3.74951 11.1096 3.82843 10.9687 3.96907L7.99999 6.93782L5.03124 3.96907C4.89034 3.82818 4.69925 3.74902 4.49999 3.74902C4.30073 3.74902 4.10964 3.82818 3.96874 3.96907C3.82784 4.10997 3.74869 4.30107 3.74869 4.50032C3.74869 4.69958 3.82784 4.89068 3.96874 5.03157L6.93749 8.00032L3.96874 10.9691C3.82784 11.11 3.74869 11.3011 3.74869 11.5003C3.74869 11.6996 3.82784 11.8907 3.96874 12.0316C4.10964 12.1725 4.30073 12.2516 4.49999 12.2516C4.69925 12.2516 4.89034 12.1725 5.03124 12.0316L7.99999 9.06282L10.9687 12.0316C11.1096 12.1725 11.3007 12.2516 11.5 12.2516C11.6992 12.2516 11.8903 12.1725 12.0312 12.0316C12.1721 11.8907 12.2513 11.6996 12.2513 11.5003C12.2513 11.3011 12.1721 11.11 12.0312 10.9691L9.06061 8.00032Z" fill="white"/>
</svg>
