<svg width="20" height="20" viewBox="0 0 20 20" fill="none" xmlns="http://www.w3.org/2000/svg">
<path d="M18.7137 4.3496C18.7049 4.20991 18.6496 4.07721 18.5564 3.97274C18.4633 3.86827 18.3378 3.79808 18.2 3.77343C14.8395 3.17108 13.4254 2.69999 10.3906 1.33436C10.0875 1.22147 9.89963 1.22343 9.60939 1.33436C6.57463 2.70155 5.16056 3.1703 1.80002 3.77343C1.66225 3.79808 1.53674 3.86827 1.4436 3.97274C1.35047 4.07721 1.29509 4.20991 1.28635 4.3496C1.13595 6.73632 1.45588 8.95897 2.23791 10.957C2.87737 12.5863 3.82471 14.0771 5.02814 15.348C6.77306 17.2008 8.70783 18.2824 9.70549 18.6918C9.89466 18.769 10.1065 18.769 10.2957 18.6918C11.3504 18.2652 13.2133 17.2144 14.9719 15.3473C16.1752 14.0766 17.1226 12.586 17.7621 10.957C18.5442 8.95936 18.8641 6.73632 18.7137 4.3496Z" fill="#101010"/>
</svg>
