<svg width="20" height="20" viewBox="0 0 20 20" fill="none" xmlns="http://www.w3.org/2000/svg">
<g clip-path="url(#clip0_8_596)">
<path d="M8.12506 20.0001C7.92754 20.0011 7.73442 19.9418 7.5715 19.8301C7.40858 19.7184 7.28363 19.5596 7.21334 19.3751L5.65709 15.3282C5.62557 15.2466 5.57735 15.1726 5.51553 15.1108C5.45371 15.0489 5.37965 15.0007 5.2981 14.9692L1.25006 13.4118C1.06566 13.341 0.907056 13.216 0.79518 13.0532C0.683304 12.8904 0.623413 12.6976 0.623413 12.5001C0.623413 12.3025 0.683304 12.1097 0.79518 11.9469C0.907056 11.7841 1.06566 11.6591 1.25006 11.5883L5.29693 10.0321C5.37848 10.0006 5.45254 9.95235 5.51436 9.89053C5.57618 9.82871 5.6244 9.75465 5.65592 9.6731L7.21334 5.62506C7.28411 5.44066 7.40913 5.28206 7.5719 5.17018C7.73467 5.0583 7.92755 4.99841 8.12506 4.99841C8.32257 4.99841 8.51544 5.0583 8.67821 5.17018C8.84098 5.28206 8.966 5.44066 9.03678 5.62506L10.593 9.67193C10.6245 9.75348 10.6728 9.82754 10.7346 9.88936C10.7964 9.95118 10.8705 9.9994 10.952 10.0309L14.9754 11.579C15.1674 11.6501 15.3327 11.7786 15.4489 11.9471C15.5652 12.1155 15.6267 12.3157 15.6251 12.5204C15.6221 12.7144 15.5609 12.9032 15.4495 13.0621C15.3381 13.221 15.1815 13.3428 15.0001 13.4118L10.9532 14.968C10.8716 14.9995 10.7976 15.0478 10.7358 15.1096C10.6739 15.1714 10.6257 15.2455 10.5942 15.327L9.03678 19.3751C8.96648 19.5596 8.84153 19.7184 8.67861 19.8301C8.5157 19.9418 8.32258 20.0011 8.12506 20.0001Z" fill="white"/>
<path d="M3.43755 6.87501C3.32175 6.87501 3.20867 6.83992 3.11321 6.77437C3.01775 6.70883 2.94438 6.6159 2.90278 6.50783L2.24419 4.79533C2.22991 4.75787 2.20788 4.72386 2.17954 4.69552C2.1512 4.66718 2.11719 4.64515 2.07974 4.63087L0.367236 3.97228C0.259181 3.93067 0.166266 3.8573 0.100733 3.76184C0.0351994 3.66638 0.00012207 3.5533 0.00012207 3.43751C0.00012207 3.32172 0.0351994 3.20865 0.100733 3.11319C0.166266 3.01773 0.259181 2.94436 0.367236 2.90275L2.07974 2.24415C2.11715 2.22982 2.15113 2.20776 2.17946 2.17943C2.2078 2.1511 2.22985 2.11712 2.24419 2.0797L2.89692 0.382436C2.93373 0.282515 2.99708 0.194515 3.08015 0.127893C3.16322 0.0612707 3.26288 0.0185461 3.36841 0.00431091C3.49511 -0.0110913 3.62332 0.016244 3.73272 0.0819825C3.84212 0.147721 3.92644 0.2481 3.97231 0.367201L4.63091 2.0797C4.64525 2.11712 4.6673 2.1511 4.69563 2.17943C4.72397 2.20776 4.75795 2.22982 4.79536 2.24415L6.50786 2.90275C6.61592 2.94436 6.70883 3.01773 6.77436 3.11319C6.8399 3.20865 6.87497 3.32172 6.87497 3.43751C6.87497 3.5533 6.8399 3.66638 6.77436 3.76184C6.70883 3.8573 6.61592 3.93067 6.50786 3.97228L4.79536 4.63087C4.75791 4.64515 4.7239 4.66718 4.69555 4.69552C4.66721 4.72386 4.64518 4.75787 4.63091 4.79533L3.97231 6.50783C3.93072 6.6159 3.85735 6.70883 3.76189 6.77437C3.66643 6.83992 3.55335 6.87501 3.43755 6.87501Z" fill="white"/>
<path d="M15.625 9.99999C15.4987 9.99995 15.3753 9.96163 15.2712 9.89009C15.1671 9.81854 15.0871 9.71712 15.0418 9.59921L14.1496 7.28007C14.1339 7.2392 14.1098 7.20209 14.0788 7.17113C14.0479 7.14018 14.0108 7.11608 13.9699 7.10038L11.6508 6.20819C11.5329 6.16279 11.4316 6.08277 11.3602 5.97867C11.2887 5.87456 11.2505 5.75126 11.2505 5.62499C11.2505 5.49872 11.2887 5.37542 11.3602 5.27131C11.4316 5.16721 11.5329 5.08719 11.6508 5.04179L13.9699 4.1496C14.0108 4.1339 14.0479 4.1098 14.0788 4.07884C14.1098 4.04789 14.1339 4.01078 14.1496 3.96991L15.0351 1.66718C15.0756 1.55828 15.1448 1.46238 15.2353 1.38968C15.3259 1.31697 15.4345 1.27018 15.5496 1.25429C15.6879 1.23755 15.8277 1.26747 15.9471 1.3393C16.0664 1.41113 16.1583 1.52075 16.2082 1.65077L17.1004 3.96991C17.1161 4.01078 17.1402 4.04789 17.1711 4.07884C17.2021 4.1098 17.2392 4.1339 17.2801 4.1496L19.5992 5.04179C19.717 5.08719 19.8183 5.16721 19.8898 5.27131C19.9612 5.37542 19.9995 5.49872 19.9995 5.62499C19.9995 5.75126 19.9612 5.87456 19.8898 5.97867C19.8183 6.08277 19.717 6.16279 19.5992 6.20819L17.2801 7.10038C17.2392 7.11608 17.2021 7.14018 17.1711 7.17113C17.1402 7.20209 17.1161 7.2392 17.1004 7.28007L16.2082 9.59921C16.1629 9.71712 16.0829 9.81854 15.9788 9.89009C15.8747 9.96163 15.7513 9.99995 15.625 9.99999Z" fill="white"/>
</g>
<defs>
<clipPath id="clip0_8_596">
<rect width="20" height="20" fill="white"/>
</clipPath>
</defs>
</svg>
