<svg width="16" height="16" viewBox="0 0 16 16" fill="none" xmlns="http://www.w3.org/2000/svg">
<path d="M14.0334 12.4712L8.7075 2.58062C8.33 1.87937 7.32437 1.87937 6.94656 2.58062L1.62094 12.4712C1.53897 12.6235 1.49788 12.7944 1.50167 12.9672C1.50546 13.1401 1.554 13.309 1.64256 13.4575C1.73111 13.606 1.85666 13.729 2.00694 13.8145C2.15722 13.9 2.3271 13.9451 2.5 13.9453H13.1528C13.3258 13.9453 13.4959 13.9005 13.6464 13.8151C13.7969 13.7297 13.9227 13.6067 14.0114 13.4582C14.1002 13.3096 14.1488 13.1406 14.1527 12.9676C14.1566 12.7946 14.1155 12.6236 14.0334 12.4712ZM7.82719 12.4141C7.70357 12.4141 7.58274 12.3774 7.47995 12.3087C7.37717 12.2401 7.29707 12.1424 7.24976 12.0282C7.20246 11.914 7.19008 11.7884 7.2142 11.6671C7.23831 11.5459 7.29784 11.4345 7.38524 11.3471C7.47265 11.2597 7.58402 11.2002 7.70525 11.1761C7.82649 11.152 7.95216 11.1643 8.06636 11.2116C8.18057 11.2589 8.27818 11.3391 8.34685 11.4418C8.41553 11.5446 8.45219 11.6654 8.45219 11.7891C8.45219 11.8711 8.43602 11.9524 8.40461 12.0282C8.3732 12.1041 8.32716 12.173 8.26913 12.231C8.21109 12.289 8.14219 12.3351 8.06636 12.3665C7.99053 12.3979 7.90926 12.4141 7.82719 12.4141ZM8.50594 6.12813L8.32656 9.94063C8.32656 10.0732 8.27388 10.2004 8.18011 10.2942C8.08635 10.3879 7.95917 10.4406 7.82656 10.4406C7.69395 10.4406 7.56678 10.3879 7.47301 10.2942C7.37924 10.2004 7.32656 10.0732 7.32656 9.94063L7.14719 6.12969C7.14316 6.03862 7.1575 5.94768 7.18936 5.86227C7.22123 5.77687 7.26996 5.69875 7.33266 5.63259C7.39536 5.56642 7.47074 5.51355 7.5543 5.47713C7.63787 5.44072 7.72791 5.4215 7.81906 5.42063H7.82562C7.9174 5.42058 8.00823 5.43912 8.09263 5.47515C8.17704 5.51117 8.25327 5.56392 8.31674 5.63021C8.3802 5.6965 8.42957 5.77497 8.46187 5.86087C8.49417 5.94676 8.50874 6.03832 8.50469 6.13L8.50594 6.12813Z" fill="white"/>
</svg>
