<svg width="25" height="24" viewBox="0 0 25 24" fill="none" xmlns="http://www.w3.org/2000/svg">
<path d="M14 12C16.4745 12 18.6608 9.66984 18.875 6.80531C18.9814 5.36625 18.53 4.02422 17.6037 3.02719C16.6873 2.04234 15.4062 1.5 14 1.5C12.5825 1.5 11.3005 2.03906 10.3906 3.01781C9.47047 4.00734 9.02187 5.35219 9.125 6.80438C9.33547 9.66938 11.5212 12 14 12Z" fill="#101010"/>
<path d="M23.7209 20.6137C23.3253 18.4191 22.0902 16.5755 20.1495 15.2817C18.4259 14.1328 16.242 13.5 14 13.5C11.758 13.5 9.57406 14.1328 7.85046 15.2812C5.90984 16.575 4.67468 18.4186 4.27906 20.6133C4.18859 21.1162 4.3114 21.6136 4.61609 21.9778C4.75428 22.1438 4.92781 22.2768 5.12398 22.3672C5.32016 22.4575 5.53404 22.5029 5.74999 22.5H22.25C22.4661 22.5031 22.6801 22.4578 22.8765 22.3676C23.0728 22.2773 23.2465 22.1443 23.3848 21.9783C23.6886 21.6141 23.8114 21.1167 23.7209 20.6137Z" fill="#101010"/>
<path d="M5.375 13.5V11.625H7.25C7.44891 11.625 7.63968 11.546 7.78033 11.4053C7.92098 11.2647 8 11.0739 8 10.875C8 10.6761 7.92098 10.4853 7.78033 10.3447C7.63968 10.204 7.44891 10.125 7.25 10.125H5.375V8.25C5.375 8.05109 5.29598 7.86032 5.15533 7.71967C5.01468 7.57902 4.82391 7.5 4.625 7.5C4.42609 7.5 4.23532 7.57902 4.09467 7.71967C3.95402 7.86032 3.875 8.05109 3.875 8.25V10.125H2C1.80109 10.125 1.61032 10.204 1.46967 10.3447C1.32902 10.4853 1.25 10.6761 1.25 10.875C1.25 11.0739 1.32902 11.2647 1.46967 11.4053C1.61032 11.546 1.80109 11.625 2 11.625H3.875V13.5C3.875 13.6989 3.95402 13.8897 4.09467 14.0303C4.23532 14.171 4.42609 14.25 4.625 14.25C4.82391 14.25 5.01468 14.171 5.15533 14.0303C5.29598 13.8897 5.375 13.6989 5.375 13.5Z" fill="#101010"/>
</svg>
