<svg width="17" height="17" viewBox="0 0 17 17" fill="none" xmlns="http://www.w3.org/2000/svg">
<path d="M3.79593 16.0912C3.59006 15.9737 3.42494 15.7962 3.32264 15.5824C3.22034 15.3686 3.18574 15.1286 3.22344 14.8946L4.03426 9.75522C4.05044 9.65156 4.04476 9.54566 4.01761 9.44432C3.99046 9.34299 3.94242 9.24844 3.87659 9.16676L0.604186 5.11941C0.455018 4.93522 0.365206 4.71013 0.346604 4.47385C0.328002 4.23757 0.381483 4.0012 0.49999 3.79594C0.618497 3.59068 0.796459 3.42618 1.01039 3.32414C1.22432 3.22211 1.46415 3.18735 1.69825 3.22444L6.83763 4.03526C6.94129 4.05143 7.04719 4.04576 7.14853 4.01861C7.24986 3.99145 7.34441 3.94342 7.42609 3.87758L11.4734 0.605182C11.6576 0.456014 11.8827 0.366202 12.119 0.347599C12.3553 0.328997 12.5917 0.382479 12.7969 0.500986C13.0022 0.619493 13.1667 0.797454 13.2687 1.01138C13.3707 1.22531 13.4055 1.46515 13.3684 1.69924L12.5576 6.83863C12.5414 6.94229 12.5471 7.04818 12.5742 7.14952C12.6014 7.25086 12.6494 7.3454 12.7153 7.42709L15.9677 11.4499C16.1245 11.639 16.2192 11.8718 16.2389 12.1166C16.2586 12.3614 16.2024 12.6063 16.078 12.818C15.9584 13.0179 15.7816 13.1773 15.5705 13.2757C15.3593 13.374 15.1235 13.4066 14.8936 13.3694L9.75422 12.5586C9.65056 12.5424 9.54467 12.5481 9.44333 12.5752C9.34199 12.6024 9.24745 12.6504 9.16576 12.7163L5.11841 15.9887C4.93461 16.1383 4.70951 16.2283 4.47319 16.2466C4.23687 16.265 4.00059 16.2107 3.79593 16.0912Z" fill="white"/>
</svg>
