<svg width="48" height="48" viewBox="0 0 48 48" fill="none" xmlns="http://www.w3.org/2000/svg">
<rect width="48" height="48" rx="24" fill="#F5F5F5"/>
<path d="M25.3258 24.0002L29.0368 20.2892C29.2129 20.1134 29.3119 19.8748 29.3122 19.626C29.3124 19.3771 29.2137 19.1384 29.0379 18.9623C28.8621 18.7862 28.6235 18.6871 28.3747 18.6869C28.1258 18.6866 27.8871 18.7853 27.711 18.9611L24 22.672L20.2891 18.9611C20.113 18.785 19.8741 18.686 19.625 18.686C19.376 18.686 19.1371 18.785 18.961 18.9611C18.7849 19.1372 18.6859 19.3761 18.6859 19.6252C18.6859 19.8742 18.7849 20.1131 18.961 20.2892L22.6719 24.0002L18.961 27.7111C18.7849 27.8872 18.6859 28.1261 18.6859 28.3752C18.6859 28.6242 18.7849 28.8631 18.961 29.0392C19.1371 29.2153 19.376 29.3143 19.625 29.3143C19.8741 29.3143 20.113 29.2153 20.2891 29.0392L24 25.3283L27.711 29.0392C27.8871 29.2153 28.126 29.3143 28.375 29.3143C28.6241 29.3143 28.863 29.2153 29.0391 29.0392C29.2152 28.8631 29.3142 28.6242 29.3142 28.3752C29.3142 28.1261 29.2152 27.8872 29.0391 27.7111L25.3258 24.0002Z" fill="#101010"/>
</svg>
