<svg width="40" height="40" viewBox="0 0 40 40" fill="none" xmlns="http://www.w3.org/2000/svg">
<path d="M35.0837 31.1781L21.7688 6.45156C20.8251 4.69844 18.311 4.69844 17.3665 6.45156L4.05244 31.1781C3.84752 31.5587 3.74479 31.9859 3.75426 32.4181C3.76374 32.8502 3.88509 33.2725 4.10648 33.6438C4.32788 34.015 4.64174 34.3225 5.01744 34.5362C5.39315 34.75 5.81785 34.8627 6.25009 34.8633H32.8821C33.3147 34.8633 33.7399 34.7512 34.1161 34.5377C34.4924 34.3242 34.8068 34.0168 35.0286 33.6454C35.2505 33.2741 35.3722 32.8515 35.3818 32.419C35.3915 31.9866 35.2888 31.559 35.0837 31.1781ZM19.5681 31.0352C19.259 31.0352 18.9569 30.9435 18.7 30.7718C18.443 30.6001 18.2428 30.3561 18.1245 30.0706C18.0062 29.7851 17.9753 29.4709 18.0356 29.1678C18.0959 28.8647 18.2447 28.5863 18.4632 28.3678C18.6817 28.1493 18.9601 28.0005 19.2632 27.9402C19.5663 27.8799 19.8805 27.9108 20.166 28.0291C20.4515 28.1474 20.6955 28.3476 20.8672 28.6046C21.0389 28.8615 21.1306 29.1636 21.1306 29.4727C21.1306 29.6778 21.0901 29.881 21.0116 30.0706C20.9331 30.2602 20.818 30.4324 20.6729 30.5775C20.5278 30.7226 20.3556 30.8377 20.166 30.9162C19.9764 30.9947 19.7733 31.0352 19.5681 31.0352ZM21.2649 15.3203L20.8165 24.8516C20.8165 25.1831 20.6848 25.501 20.4504 25.7354C20.216 25.9699 19.898 26.1016 19.5665 26.1016C19.235 26.1016 18.917 25.9699 18.6826 25.7354C18.4482 25.501 18.3165 25.1831 18.3165 24.8516L17.8681 15.3242C17.858 15.0966 17.8938 14.8692 17.9735 14.6557C18.0532 14.4422 18.175 14.2469 18.3318 14.0815C18.4885 13.916 18.6769 13.7839 18.8859 13.6928C19.0948 13.6018 19.3199 13.5538 19.5477 13.5516H19.5642C19.7936 13.5514 20.0207 13.5978 20.2317 13.6879C20.4427 13.7779 20.6333 13.9098 20.7919 14.0755C20.9506 14.2413 21.074 14.4374 21.1548 14.6522C21.2355 14.8669 21.2719 15.0958 21.2618 15.325L21.2649 15.3203Z" fill="#FF3B30"/>
</svg>
