<svg width="20" height="20" viewBox="0 0 20 20" fill="none" xmlns="http://www.w3.org/2000/svg">
<path d="M3.37418 4.83514L6.54501 7.62514L9.37001 4.14681C9.44911 4.04957 9.54914 3.97143 9.66263 3.9182C9.77612 3.86498 9.90016 3.83804 10.0255 3.8394C10.1509 3.84077 10.2743 3.87039 10.3866 3.92607C10.4989 3.98174 10.5972 4.06204 10.6742 4.16098L13.37 7.62431L16.6433 4.79431C16.7719 4.6834 16.9312 4.6144 17.1001 4.59654C17.2689 4.57869 17.4392 4.61283 17.5881 4.69439C17.737 4.77596 17.8574 4.90105 17.9333 5.05295C18.0091 5.20484 18.0368 5.37627 18.0125 5.54431L16.7625 14.1668H3.26834L1.99918 5.58348C1.97396 5.41451 2.0013 5.24187 2.07747 5.08895C2.15364 4.93603 2.27497 4.81022 2.42503 4.72855C2.57508 4.64688 2.74661 4.61331 2.91639 4.63237C3.08616 4.65144 3.24597 4.72223 3.37418 4.83514ZM3.33334 15.0001H16.6667V15.8335C16.6667 16.0545 16.5789 16.2665 16.4226 16.4227C16.2663 16.579 16.0544 16.6668 15.8333 16.6668H4.16668C3.94566 16.6668 3.7337 16.579 3.57742 16.4227C3.42114 16.2665 3.33334 16.0545 3.33334 15.8335V15.0001Z" fill="white"/>
</svg>
