<svg width="24" height="24" viewBox="0 0 24 24" fill="none" xmlns="http://www.w3.org/2000/svg">
<path d="M17.625 8.25H12.75V15.0469C12.75 15.2458 12.671 15.4366 12.5303 15.5772C12.3897 15.7179 12.1989 15.7969 12 15.7969C11.8011 15.7969 11.6103 15.7179 11.4697 15.5772C11.329 15.4366 11.25 15.2458 11.25 15.0469V8.25H6.375C5.67904 8.25074 5.01179 8.52754 4.51967 9.01967C4.02755 9.51179 3.75074 10.179 3.75 10.875V19.875C3.75074 20.571 4.02755 21.2382 4.51967 21.7303C5.01179 22.2225 5.67904 22.4993 6.375 22.5H17.625C18.321 22.4993 18.9882 22.2225 19.4803 21.7303C19.9725 21.2382 20.2493 20.571 20.25 19.875V10.875C20.2493 10.179 19.9725 9.51179 19.4803 9.01967C18.9882 8.52754 18.321 8.25074 17.625 8.25Z" fill="#101010"/>
<path d="M12.75 4.06068L15.2198 6.53005C15.3616 6.66477 15.5504 6.73876 15.746 6.73626C15.9416 6.73375 16.1284 6.65495 16.2667 6.51665C16.405 6.37835 16.4838 6.19149 16.4863 5.99592C16.4888 5.80035 16.4148 5.61154 16.2801 5.46974L12.5301 1.71974C12.3895 1.57919 12.1988 1.50024 12 1.50024C11.8011 1.50024 11.6105 1.57919 11.4698 1.71974L7.71982 5.46974C7.5851 5.61154 7.51111 5.80035 7.51361 5.99592C7.51612 6.19149 7.59492 6.37835 7.73322 6.51665C7.87152 6.65495 8.05838 6.73375 8.25395 6.73626C8.44952 6.73876 8.63833 6.66477 8.78013 6.53005L11.25 4.06068V8.2499H12.75V4.06068Z" fill="#101010"/>
</svg>
